<?xml version="1.0" encoding="UTF-8"?>
<svg width="30px" height="38px" viewBox="0 0 30 38" version="1.1" xmlns="http://www.w3.org/2000/svg" xmlns:xlink="http://www.w3.org/1999/xlink">
    <!-- Generator: sketchtool 48.1 (47250) - http://www.bohemiancoding.com/sketch -->
    <title>0E9FFD42-ACE8-4BE0-96E6-7E9E2662B423</title>
    <desc>Created with sketchtool.</desc>
    <defs>
        <path d="M22,30 L15.0563935,38 L8,30 L2,30 C0.8954305,30 1.3527075e-16,29.1045695 0,28 L0,2 C-1.3527075e-16,0.8954305 0.8954305,2.02906125e-16 2,0 L28,0 C29.1045695,-2.02906125e-16 30,0.8954305 30,2 L30,28 C30,29.1045695 29.1045695,30 28,30 L22,30 Z" id="path-1"></path>
    </defs>
    <g id="iconset" stroke="none" stroke-width="1" fill="none" fill-rule="evenodd" transform="translate(-203.000000, -265.000000)">
        <g id="Group-5-Copy" transform="translate(203.000000, 265.000000)">
            <g id="Combined-Shape-Copy-6">
                <use fill="#D4232E" fill-rule="evenodd" xlink:href="#path-1"></use>
                <path stroke="#FFFFFF" stroke-width="1" d="M15.0533619,37.2406978 L21.7719069,29.5 L28,29.5 C28.8284271,29.5 29.5,28.8284271 29.5,28 L29.5,2 C29.5,1.17157288 28.8284271,0.5 28,0.5 L2,0.5 C1.17157288,0.5 0.5,1.17157288 0.5,2 L0.5,28 C0.5,28.8284271 1.17157288,29.5 2,29.5 L8.22568576,29.5 L15.0533619,37.2406978 Z"></path>
            </g>
            <g id="Group-19-Copy-2" transform="translate(6.000000, 4.000000)" fill="#FFFFFF">
                <g id="Group-11" transform="translate(0.519231, 0.500000)">
                    <path d="M5.67403846,19.1132308 L5.67403846,13.2178846 C5.90261538,13.2639231 6.13119231,13.3099615 6.405,13.3099615 C6.63357692,13.3099615 6.90819231,13.2639231 7.13596154,13.2178846 L7.13596154,19.1132308 L5.67403846,19.1132308 Z M6.405,1.33673077 C6.72484615,1.61053846 7.13596154,2.15976923 7.13596154,2.75342308 L7.13596154,7.04953846 C6.67961538,6.95746154 6.17723077,6.95746154 5.67403846,7.04953846 L5.67403846,2.75342308 C5.67403846,2.15976923 6.13119231,1.65657692 6.405,1.33673077 Z M5.67403846,8.28288462 C6.13119231,8.09953846 6.67961538,8.09953846 7.13596154,8.28288462 L7.13596154,12.0305769 C6.67961538,12.2131154 6.13119231,12.2131154 5.67403846,12.0305769 L5.67403846,8.28288462 Z M6.72484615,0.102576923 C6.54230769,-0.0339230769 6.2685,-0.0339230769 6.08515385,0.102576923 C6.03992308,0.148615385 4.53115385,1.19942308 4.53115385,2.75342308 L4.53115385,19.6616538 C4.53115385,19.9815 4.80576923,20.2100769 5.08038462,20.2100769 L7.68519231,20.2100769 C8.00503846,20.2100769 8.23280769,19.9362692 8.23280769,19.6616538 L8.23280769,2.75342308 C8.27884615,1.19942308 6.81692308,0.148615385 6.72484615,0.102576923 Z" id="Fill-36"></path>
                    <path d="M10.3812692,19.1132308 L10.3812692,13.2178846 C10.6098462,13.2639231 10.8384231,13.3099615 11.1122308,13.3099615 C11.3408077,13.3099615 11.6146154,13.2639231 11.8431923,13.2178846 L11.8431923,19.1132308 L10.3812692,19.1132308 Z M11.0661923,1.33673077 C11.3860385,1.61053846 11.7971538,2.15976923 11.7971538,2.75342308 L11.7971538,7.04953846 C11.3408077,6.95746154 10.8384231,6.95746154 10.3352308,7.04953846 L10.3352308,2.75342308 C10.3812692,2.15976923 10.7923846,1.65657692 11.0661923,1.33673077 Z M10.3812692,8.28288462 C10.8384231,8.09953846 11.3860385,8.09953846 11.8431923,8.28288462 L11.8431923,12.0305769 C11.3860385,12.2131154 10.8384231,12.2131154 10.3812692,12.0305769 L10.3812692,8.28288462 Z M11.3860385,0.102576923 C11.2035,-0.0339230769 10.9296923,-0.0339230769 10.7463462,0.102576923 C10.7011154,0.148615385 9.19315385,1.19942308 9.19315385,2.75342308 L9.19315385,19.6616538 C9.19315385,19.9815 9.46696154,20.2100769 9.74157692,20.2100769 L12.3463846,20.2100769 C12.6662308,20.2100769 12.894,19.9362692 12.894,19.6616538 L12.894,2.75342308 C12.9400385,1.19942308 11.4773077,0.148615385 11.3860385,0.102576923 Z" id="Fill-37"></path>
                    <path d="M16.4131154,14.4520385 L16.002,14.4520385 L16.002,7.36857692 C16.3218462,7.36857692 16.5504231,7.09476923 16.5504231,6.82015385 C16.5504231,6.54634615 16.3218462,6.27253846 16.002,6.27253846 L16.002,3.85026923 C16.002,3.53042308 15.7273846,3.30184615 15.4535769,3.30184615 C15.1797692,3.30184615 14.9051538,3.57646154 14.9051538,3.85026923 L14.9051538,6.27253846 C14.5853077,6.27253846 14.3567308,6.54634615 14.3567308,6.82015385 C14.3567308,7.09476923 14.5853077,7.36857692 14.9051538,7.36857692 L14.9051538,14.4520385 L14.4940385,14.4520385 C14.1741923,14.4520385 13.9456154,14.7266538 13.9456154,15.0004615 C13.9456154,15.2742692 14.2202308,15.5488846 14.4940385,15.5488846 L14.9051538,15.5488846 L14.9051538,16.1885769 C14.9051538,16.5092308 15.1797692,16.737 15.4535769,16.737 C15.7273846,16.737 16.002,16.4631923 16.002,16.1885769 L16.002,15.5949231 L16.4131154,15.5949231 C16.7329615,15.5949231 16.9615385,15.3203077 16.9615385,15.0465 C16.9615385,14.7718846 16.7329615,14.4520385 16.4131154,14.4520385" id="Fill-38"></path>
                    <path d="M3.024,14.4520385 L2.61207692,14.4520385 L2.61207692,7.36857692 C2.93192308,7.36857692 3.1605,7.09476923 3.1605,6.82015385 C3.1605,6.54634615 2.93192308,6.27253846 2.61207692,6.27253846 L2.61207692,3.85026923 C2.61207692,3.53042308 2.33826923,3.30184615 2.06365385,3.30184615 C1.78984615,3.30184615 1.51523077,3.57646154 1.51523077,3.85026923 L1.51523077,6.27253846 C1.19538462,6.27253846 0.966807692,6.54634615 0.966807692,6.82015385 C0.966807692,7.09476923 1.19538462,7.36857692 1.51523077,7.36857692 L1.51523077,14.4520385 L1.10411538,14.4520385 C0.784269231,14.4520385 0.555692308,14.7266538 0.555692308,15.0004615 C0.555692308,15.2742692 0.784269231,15.5949231 1.10411538,15.5949231 L1.51523077,15.5949231 L1.51523077,16.2346154 C1.51523077,16.5544615 1.78984615,16.7822308 2.06365385,16.7822308 C2.33826923,16.7822308 2.61207692,16.5092308 2.61207692,16.2346154 L2.61207692,15.5949231 L3.024,15.5949231 C3.34384615,15.5949231 3.57161538,15.3203077 3.57161538,15.0465 C3.57161538,14.7718846 3.34384615,14.4520385 3.024,14.4520385" id="Fill-39"></path>
                </g>
            </g>
        </g>
    </g>
</svg>