<?xml version="1.0" encoding="UTF-8"?>
<svg width="30px" height="38px" viewBox="0 0 30 38" version="1.1" xmlns="http://www.w3.org/2000/svg" xmlns:xlink="http://www.w3.org/1999/xlink">
    <!-- Generator: sketchtool 48.1 (47250) - http://www.bohemiancoding.com/sketch -->
    <title>70CD8094-E5CC-4CAB-8479-49ABD853A6AE</title>
    <desc>Created with sketchtool.</desc>
    <defs>
        <path d="M22,30 L15.0563935,38 L8,30 L2,30 C0.8954305,30 1.3527075e-16,29.1045695 0,28 L0,2 C-1.3527075e-16,0.8954305 0.8954305,2.02906125e-16 2,0 L28,0 C29.1045695,-2.02906125e-16 30,0.8954305 30,2 L30,28 C30,29.1045695 29.1045695,30 28,30 L22,30 Z" id="path-1"></path>
    </defs>
    <g id="iconset" stroke="none" stroke-width="1" fill="none" fill-rule="evenodd" transform="translate(-203.000000, -225.000000)">
        <g id="Group-4-Copy" transform="translate(203.000000, 225.000000)">
            <g id="Combined-Shape-Copy-5">
                <use fill="#D4232E" fill-rule="evenodd" xlink:href="#path-1"></use>
                <path stroke="#FFFFFF" stroke-width="1" d="M15.0533619,37.2406978 L21.7719069,29.5 L28,29.5 C28.8284271,29.5 29.5,28.8284271 29.5,28 L29.5,2 C29.5,1.17157288 28.8284271,0.5 28,0.5 L2,0.5 C1.17157288,0.5 0.5,1.17157288 0.5,2 L0.5,28 C0.5,28.8284271 1.17157288,29.5 2,29.5 L8.22568576,29.5 L15.0533619,37.2406978 Z"></path>
            </g>
            <g id="Group-18-Copy-2" transform="translate(4.000000, 9.000000)" fill="#FFFFFF">
                <g id="Group-10" transform="translate(0.500000, 0.000000)">
                    <path d="M1.90354839,8.29093548 C1.34874194,8.29093548 0.897580645,8.74209677 0.897580645,9.29758065 C0.897580645,9.8523871 1.34874194,10.3035484 1.90354839,10.3035484 L8.56732258,10.3035484 C9.10045161,10.3035484 9.55093548,9.84222581 9.55093548,9.29758065 C9.55093548,8.74209677 9.09977419,8.29093548 8.54496774,8.29093548 L1.90354839,8.29093548 Z M8.56732258,10.9741935 L1.90354839,10.9741935 C0.978870968,10.9741935 0.226258065,10.2222581 0.226258065,9.29758065 C0.226258065,8.37222581 0.978870968,7.62029032 1.90354839,7.62029032 L8.54496774,7.62029032 C9.46964516,7.62029032 10.2215806,8.37222581 10.2215806,9.29758065 C10.2215806,10.2222581 9.47980645,10.9741935 8.56732258,10.9741935 Z" id="Fill-10"></path>
                    <path d="M1.90354839,8.29093548 C1.34874194,8.29093548 0.897580645,8.74209677 0.897580645,9.29758065 C0.897580645,9.8523871 1.34874194,10.3035484 1.90354839,10.3035484 C2.45835484,10.3035484 2.90951613,9.8523871 2.90951613,9.29758065 C2.90951613,8.74209677 2.45835484,8.29093548 1.90354839,8.29093548 Z M1.90354839,10.9741935 C0.978870968,10.9741935 0.226258065,10.2222581 0.226258065,9.29758065 C0.226258065,8.37222581 0.978870968,7.62029032 1.90354839,7.62029032 C2.82822581,7.62029032 3.58083871,8.37222581 3.58083871,9.29758065 C3.58083871,10.2222581 2.82822581,10.9741935 1.90354839,10.9741935 Z" id="Fill-11"></path>
                    <path d="M8.54496774,8.29093548 C7.99016129,8.29093548 7.53832258,8.74209677 7.53832258,9.29758065 C7.53832258,9.8523871 7.99016129,10.3035484 8.54496774,10.3035484 C9.09977419,10.3035484 9.55093548,9.8523871 9.55093548,9.29758065 C9.55093548,8.74209677 9.09977419,8.29093548 8.54496774,8.29093548 Z M8.54496774,10.9741935 C7.62029032,10.9741935 6.86767742,10.2222581 6.86767742,9.29758065 C6.86767742,8.37222581 7.62029032,7.62029032 8.54496774,7.62029032 C9.46964516,7.62029032 10.2215806,8.37222581 10.2215806,9.29758065 C10.2215806,10.2222581 9.46964516,10.9741935 8.54496774,10.9741935 Z" id="Fill-12"></path>
                    <path d="M2.82009677,5.09351613 C2.51254839,5.09351613 2.26122581,5.34416129 2.26122581,5.6523871 C2.26122581,5.9606129 2.51254839,6.21125806 2.82009677,6.21125806 L9.52858065,6.21125806 C9.66745161,6.21125806 9.80970968,6.1496129 9.91741935,6.04122581 L10.8658065,5.09351613 L2.82009677,5.09351613 Z M9.52858065,6.88190323 L2.82009677,6.88190323 C2.142,6.88190323 1.59058065,6.33048387 1.59058065,5.6523871 C1.59058065,4.97429032 2.142,4.42219355 2.82009677,4.42219355 L11.2830968,4.42219355 C11.1489677,4.04080645 10.7892581,3.77390323 10.3563871,3.77390323 L9.88625806,3.77390323 C9.70132258,3.77390323 9.55093548,3.62419355 9.55093548,3.43858065 C9.55093548,3.25364516 9.70132258,3.10325806 9.88625806,3.10325806 L10.3563871,3.10325806 C11.0432903,3.10325806 11.6204516,3.50158065 11.873129,4.08551613 L12.7801935,3.17912903 C12.9109355,3.0483871 13.1236452,3.0483871 13.2543871,3.17912903 C13.385129,3.31054839 13.385129,3.52258065 13.2543871,3.654 L11.9158065,4.99122581 C11.9137742,4.99393548 11.9117419,4.99596774 11.9090323,4.99867742 L10.3916129,6.51541935 C10.1592581,6.74845161 9.84425806,6.88190323 9.52858065,6.88190323 Z" id="Fill-13"></path>
                    <path d="M13.3505806,3.37625806 C13.3519355,3.38845161 13.3519355,3.40064516 13.3526129,3.41216129 C13.3519355,3.40064516 13.3519355,3.38845161 13.3505806,3.37625806 Z M13.3526129,3.41216129 C13.3526129,3.41283871 13.3526129,3.41283871 13.3526129,3.41283871 C13.3526129,3.41283871 13.3526129,3.41283871 13.3526129,3.41216129 Z M13.3526129,3.41419355 C13.3526129,3.41419355 13.3526129,3.41419355 13.3526129,3.41487097 C13.3526129,3.41419355 13.3526129,3.41419355 13.3526129,3.41419355 Z M13.3526129,3.41622581 L13.3546452,3.41622581 L13.3526129,3.41622581 Z M18.3167419,7.91090323 C18.131129,7.91090323 17.9814194,7.76051613 17.9814194,7.57558065 C17.9814194,6.69087097 16.4125161,5.47219355 13.3180645,3.95341935 C12.7666452,3.68312903 12.6819677,3.64112903 12.6819677,3.41622581 C12.6819677,3.23129032 12.8316774,3.08090323 13.0172903,3.08090323 C13.1006129,3.08090323 13.1771613,3.1113871 13.2360968,3.16219355 C13.2957097,3.1953871 13.4569355,3.27464516 13.6134194,3.35119355 C15.9593226,4.50280645 18.6520645,6.0236129 18.6520645,7.57558065 C18.6520645,7.76051613 18.5023548,7.91090323 18.3167419,7.91090323 Z" id="Fill-14"></path>
                    <path d="M18.4732258,10.9741935 L12.3683226,10.9741935 C12.1833871,10.9741935 12.033,10.8244839 12.033,10.638871 C12.033,10.4539355 12.1833871,10.3035484 12.3683226,10.3035484 L18.4732258,10.3035484 C18.9182903,10.3035484 19.3728387,10.1145484 19.6891935,9.79819355 L20.4275806,9.05980645 C20.5583226,8.92906452 20.7710323,8.92906452 20.9017742,9.05980645 C21.0325161,9.19054839 21.0325161,9.40325806 20.9017742,9.534 L20.1640645,10.2723871 C19.7176452,10.718129 19.1011935,10.9741935 18.4732258,10.9741935" id="Fill-15"></path>
                    <path d="M16.2153871,10.9741935 C16.1158065,10.9741935 16.0169032,10.9301613 15.9505161,10.8461613 L14.8998387,9.50351613 C14.7853548,9.35854839 14.8110968,9.14719355 14.9567419,9.0333871 C15.1023871,8.91890323 15.3137419,8.94396774 15.4275484,9.09029032 L16.4789032,10.4315806 C16.5933871,10.5779032 16.5669677,10.7885806 16.4213226,10.9030645 C16.3603548,10.9511613 16.2871935,10.9741935 16.2153871,10.9741935" id="Fill-16"></path>
                    <path d="M1.92590323,8.29093548 C1.74029032,8.29093548 1.59058065,8.14122581 1.59058065,7.9556129 C1.59058065,6.64819355 2.37841935,6.24377419 2.79503226,6.2126129 C2.97996774,6.19703226 3.14119355,6.33725806 3.15474194,6.52151613 C3.16829032,6.70509677 3.03280645,6.86429032 2.85125806,6.88054839 C2.78622581,6.88867742 2.26122581,6.98351613 2.26122581,7.9556129 C2.26122581,8.14122581 2.11151613,8.29093548 1.92590323,8.29093548" id="Fill-17"></path>
                    <path d="M17.2884194,9.63290323 L9.88625806,9.63290323 C9.70132258,9.63290323 9.55093548,9.48251613 9.55093548,9.29758065 C9.55093548,9.11196774 9.70132258,8.96225806 9.88625806,8.96225806 L17.2884194,8.96225806 C17.6637097,8.96225806 17.9814194,8.64454839 17.9814194,8.26858065 L17.9814194,7.57558065 C17.9814194,7.38996774 18.131129,7.24025806 18.3167419,7.24025806 C18.5023548,7.24025806 18.6520645,7.38996774 18.6520645,7.57558065 L18.6520645,8.26858065 C18.6520645,9.00764516 18.0274839,9.63290323 17.2884194,9.63290323" id="Fill-18"></path>
                    <path d="M4.40796774,8.93922581 C4.22235484,8.93922581 4.07264516,8.78951613 4.07264516,8.60390323 L4.07264516,7.9556129 C4.07264516,7.77067742 4.22235484,7.62029032 4.40796774,7.62029032 C4.59358065,7.62029032 4.74329032,7.77067742 4.74329032,7.9556129 L4.74329032,8.60390323 C4.74329032,8.78951613 4.59358065,8.93922581 4.40796774,8.93922581" id="Fill-19"></path>
                    <path d="M6.04054839,8.93922581 C5.85493548,8.93922581 5.70454839,8.78951613 5.70454839,8.60390323 L5.70454839,7.9556129 C5.70454839,7.77067742 5.85493548,7.62029032 6.04054839,7.62029032 C6.22548387,7.62029032 6.37587097,7.77067742 6.37587097,7.9556129 L6.37587097,8.60390323 C6.37587097,8.78951613 6.22548387,8.93922581 6.04054839,8.93922581" id="Fill-20"></path>
                    <path d="M4.40796774,10.9741935 C4.22235484,10.9741935 4.07264516,10.8244839 4.07264516,10.638871 L4.07264516,9.99058065 C4.07264516,9.80564516 4.22235484,9.65525806 4.40796774,9.65525806 C4.59358065,9.65525806 4.74329032,9.80564516 4.74329032,9.99058065 L4.74329032,10.638871 C4.74329032,10.8244839 4.59358065,10.9741935 4.40796774,10.9741935" id="Fill-21"></path>
                    <path d="M6.04054839,10.9741935 C5.85493548,10.9741935 5.70454839,10.8244839 5.70454839,10.638871 L5.70454839,9.99058065 C5.70454839,9.80564516 5.85493548,9.65525806 6.04054839,9.65525806 C6.22548387,9.65525806 6.37587097,9.80564516 6.37587097,9.99058065 L6.37587097,10.638871 C6.37587097,10.8244839 6.22548387,10.9741935 6.04054839,10.9741935" id="Fill-22"></path>
                    <path d="M19.0320968,7.88854839 L17.6454194,7.88854839 C17.4604839,7.88854839 17.3100968,7.73816129 17.3100968,7.55254839 C17.3100968,7.3676129 17.4604839,7.21722581 17.6454194,7.21722581 L19.0320968,7.21722581 C19.2177097,7.21722581 19.3674194,7.3676129 19.3674194,7.55254839 C19.3674194,7.73816129 19.2177097,7.88854839 19.0320968,7.88854839" id="Fill-23"></path>
                    <path d="M13.0389677,3.75154839 C12.9786774,3.75154839 12.9177097,3.73596774 12.8628387,3.70209677 C12.0675484,3.2096129 10.374,1.2356129 10.302871,1.15229032 C10.1822903,1.0113871 10.1985484,0.800032258 10.3394516,0.679451613 C10.4796774,0.558193548 10.6917097,0.575129032 10.8122903,0.716032258 C11.2817419,1.26474194 12.629129,2.7686129 13.2157742,3.13103226 C13.3736129,3.22858065 13.4223871,3.43451613 13.3248387,3.59235484 C13.2611613,3.69532258 13.1514194,3.75154839 13.0389677,3.75154839" id="Fill-24"></path>
                </g>
            </g>
        </g>
    </g>
</svg>