<?xml version="1.0" encoding="UTF-8"?>
<svg width="30px" height="38px" viewBox="0 0 30 38" version="1.1" xmlns="http://www.w3.org/2000/svg" xmlns:xlink="http://www.w3.org/1999/xlink">
    <!-- Generator: sketchtool 48.1 (47250) - http://www.bohemiancoding.com/sketch -->
    <title>8074E656-3220-46B7-B1A9-64DD8D15F901</title>
    <desc>Created with sketchtool.</desc>
    <defs>
        <path d="M22,30 L15.0563935,38 L8,30 L2,30 C0.8954305,30 1.3527075e-16,29.1045695 0,28 L0,2 C-1.3527075e-16,0.8954305 0.8954305,2.02906125e-16 2,0 L28,0 C29.1045695,-2.02906125e-16 30,0.8954305 30,2 L30,28 C30,29.1045695 29.1045695,30 28,30 L22,30 Z" id="path-1"></path>
    </defs>
    <g id="iconset" stroke="none" stroke-width="1" fill="none" fill-rule="evenodd" transform="translate(-203.000000, -145.000000)">
        <g id="Group-20-Copy" transform="translate(203.000000, 145.000000)">
            <g id="Combined-Shape-Copy-3">
                <use fill="#D4232E" fill-rule="evenodd" xlink:href="#path-1"></use>
                <path stroke="#FFFFFF" stroke-width="1" d="M15.0533619,37.2406978 L21.7719069,29.5 L28,29.5 C28.8284271,29.5 29.5,28.8284271 29.5,28 L29.5,2 C29.5,1.17157288 28.8284271,0.5 28,0.5 L2,0.5 C1.17157288,0.5 0.5,1.17157288 0.5,2 L0.5,28 C0.5,28.8284271 1.17157288,29.5 2,29.5 L8.22568576,29.5 L15.0533619,37.2406978 Z"></path>
            </g>
            <g id="Group-16-Copy-2" transform="translate(4.000000, 8.000000)" fill="#FFFFFF">
                <g id="Group-8" transform="translate(0.500000, 0.120690)">
                    <path d="M10.1437241,11.7621724 L10.7860345,11.7621724 L10.7860345,11.1198621 L10.1437241,11.1198621 L10.1437241,11.7621724 Z M15.3691034,11.4623793 L16.0968621,11.4623793 L16.0968621,10.820069 L15.3691034,10.820069 L15.3691034,11.4623793 Z M4.87562069,11.4623793 L5.60410345,11.4623793 L5.60410345,10.820069 L4.87562069,10.820069 L4.87562069,11.4623793 Z M10.1437241,10.820069 L10.7860345,10.820069 L10.7860345,10.1777586 L10.1437241,10.1777586 L10.1437241,10.820069 Z M15.7326207,10.1516897 C16.2793448,10.1516897 16.7232414,10.5955862 16.7232414,11.1423103 C16.7232414,11.6883103 16.2793448,12.1322069 15.7326207,12.1322069 C15.1866207,12.1322069 14.742,11.6883103 14.742,11.1423103 C14.742,10.5955862 15.1866207,10.1516897 15.7326207,10.1516897 Z M5.23986207,10.1516897 C5.78586207,10.1516897 6.23048276,10.5955862 6.23048276,11.1423103 C6.23048276,11.6883103 5.78586207,12.1322069 5.23986207,12.1322069 C4.69386207,12.1322069 4.24924138,11.6883103 4.24924138,11.1423103 C4.24924138,10.5955862 4.69386207,10.1516897 5.23986207,10.1516897 Z M15.7326207,9.50937931 C14.8325172,9.50937931 14.0996897,10.2422069 14.0996897,11.1423103 C14.0996897,12.0424138 14.8325172,12.7752414 15.7326207,12.7752414 C16.6334483,12.7752414 17.3655517,12.0424138 17.3655517,11.1423103 C17.3655517,10.2422069 16.6334483,9.50937931 15.7326207,9.50937931 Z M5.23986207,9.50937931 C4.33975862,9.50937931 3.60693103,10.2422069 3.60693103,11.1423103 C3.60693103,12.0424138 4.33975862,12.7752414 5.23986207,12.7752414 C6.13996552,12.7752414 6.8727931,12.0424138 6.8727931,11.1423103 C6.8727931,10.2422069 6.13996552,9.50937931 5.23986207,9.50937931 Z M10.1437241,9.83524138 L10.7860345,9.83524138 L10.7860345,9.1922069 L10.1437241,9.1922069 L10.1437241,9.83524138 Z M10.1437241,7.22255172 L10.7860345,7.22255172 L10.7860345,6.5367931 L10.1437241,6.5367931 L10.1437241,7.22255172 Z M10.4862414,5.88868966 C11.0322414,5.88868966 11.4768621,6.33331034 11.4768621,6.87931034 C11.4768621,7.42531034 11.0322414,7.86993103 10.4862414,7.86993103 C9.94024138,7.86993103 9.49562069,7.42531034 9.49562069,6.87931034 C9.49562069,6.33331034 9.94024138,5.88868966 10.4862414,5.88868966 Z M18.0245172,5.60627586 L18.0245172,8.15234483 C17.4625862,8.001 17.0491034,7.48758621 17.0491034,6.87931034 C17.0491034,6.27103448 17.4625862,5.75762069 18.0245172,5.60627586 Z M2.94868966,5.60627586 C3.51062069,5.75762069 3.92410345,6.27103448 3.92410345,6.87931034 C3.92410345,7.48758621 3.51062069,8.001 2.94868966,8.15234483 L2.94868966,5.60627586 Z M10.1437241,4.90965517 L10.1437241,5.28331034 C9.40727586,5.44117241 8.85331034,6.09651724 8.85331034,6.87931034 C8.85331034,7.66210345 9.40727586,8.31817241 10.1437241,8.47603448 L10.1437241,8.84968966 L10.7867586,8.84968966 L10.7867586,8.484 C11.5434828,8.3427931 12.1191724,7.67731034 12.1191724,6.87931034 C12.1191724,6.08203448 11.5434828,5.41582759 10.7867586,5.27462069 L10.7867586,4.90965517 L10.1437241,4.90965517 Z M10.1437241,4.56713793 L10.7860345,4.56713793 L10.7860345,3.92482759 L10.1437241,3.92482759 L10.1437241,4.56713793 Z M10.1437241,3.58158621 L10.7860345,3.58158621 L10.7860345,2.93927586 L10.1437241,2.93927586 L10.1437241,3.58158621 Z M15.3691034,2.93927586 L16.0968621,2.93927586 L16.0968621,2.29696552 L15.3691034,2.29696552 L15.3691034,2.93927586 Z M4.87562069,2.93927586 L5.60410345,2.93927586 L5.60410345,2.29696552 L4.87562069,2.29696552 L4.87562069,2.93927586 Z M15.7326207,1.62641379 C16.2793448,1.62641379 16.7232414,2.07031034 16.7232414,2.61631034 C16.7232414,3.16303448 16.2793448,3.60693103 15.7326207,3.60693103 C15.1866207,3.60693103 14.742,3.16303448 14.742,2.61631034 C14.742,2.07031034 15.1866207,1.62641379 15.7326207,1.62641379 Z M5.23986207,1.62641379 C5.78586207,1.62641379 6.23048276,2.07031034 6.23048276,2.61631034 C6.23048276,3.16303448 5.78586207,3.60693103 5.23986207,3.60693103 C4.69386207,3.60693103 4.24924138,3.16303448 4.24924138,2.61631034 C4.24924138,2.07031034 4.69386207,1.62641379 5.23986207,1.62641379 Z M15.7326207,0.98337931 C14.8325172,0.98337931 14.0996897,1.7162069 14.0996897,2.61631034 C14.0996897,3.51713793 14.8325172,4.24924138 15.7326207,4.24924138 C16.6334483,4.24924138 17.3655517,3.51713793 17.3655517,2.61631034 C17.3655517,1.7162069 16.6334483,0.98337931 15.7326207,0.98337931 Z M5.23986207,0.98337931 C4.33975862,0.98337931 3.60693103,1.7162069 3.60693103,2.61631034 C3.60693103,3.51713793 4.33975862,4.24924138 5.23986207,4.24924138 C6.13996552,4.24924138 6.8727931,3.51713793 6.8727931,2.61631034 C6.8727931,1.7162069 6.13996552,0.98337931 5.23986207,0.98337931 Z M18.6668276,0.642310345 L18.7515517,0.642310345 C19.6219655,0.642310345 20.3301724,1.35051724 20.3301724,2.22093103 L20.3301724,11.5376897 C20.3301724,12.4081034 19.6219655,13.1163103 18.7515517,13.1163103 L18.6668276,13.1163103 L18.6668276,0.642310345 Z M13.4421724,0.642310345 L18.0245172,0.642310345 L18.0245172,4.9502069 C17.1128276,5.11386207 16.406069,5.9162069 16.406069,6.87931034 C16.406069,7.84313793 17.1128276,8.64548276 18.0245172,8.80913793 L18.0245172,13.1163103 L13.4421724,13.1163103 L13.4421724,0.642310345 Z M9.54631034,0.642310345 L11.4261724,0.642310345 C11.2951034,1.03913793 10.9236207,1.3172069 10.4862414,1.3172069 C10.0488621,1.3172069 9.67737931,1.03913793 9.54631034,0.642310345 Z M8.17406897,0.642310345 L8.88444828,0.642310345 C9.01044828,1.28027586 9.50937931,1.78717241 10.1437241,1.92331034 L10.1437241,2.63948276 L10.7867586,2.63948276 L10.7867586,1.93127586 C11.4413793,1.80889655 11.9598621,1.29475862 12.0880345,0.642310345 L12.7991379,0.642310345 L12.7991379,13.1163103 L10.7867586,13.1163103 L10.7867586,12.1046897 L10.1437241,12.1046897 L10.1437241,13.1163103 L8.17406897,13.1163103 L8.17406897,0.642310345 Z M2.94868966,0.642310345 L7.53103448,0.642310345 L7.53103448,13.1163103 L2.94868966,13.1163103 L2.94868966,8.80913793 C3.86037931,8.64548276 4.56713793,7.84313793 4.56713793,6.87931034 C4.56713793,5.9162069 3.86037931,5.11386207 2.94868966,4.9502069 L2.94868966,0.642310345 Z M2.22093103,0.642310345 L2.30637931,0.642310345 L2.30637931,13.1163103 L2.22093103,13.1163103 C1.35051724,13.1163103 0.642310345,12.4081034 0.642310345,11.5376897 L0.642310345,2.22093103 C0.642310345,1.35051724 1.35051724,0.642310345 2.22093103,0.642310345 Z M2.22093103,0 C0.996413793,0 0,0.996413793 0,2.22093103 L0,11.5376897 C0,12.7622069 0.996413793,13.7586207 2.22093103,13.7586207 L18.7515517,13.7586207 C19.976069,13.7586207 20.9724828,12.7622069 20.9724828,11.5376897 L20.9724828,2.22093103 C20.9724828,0.996413793 19.976069,0 18.7515517,0 L2.22093103,0 Z" id="Fill-30"></path>
                </g>
            </g>
        </g>
    </g>
</svg>