<?xml version="1.0" encoding="UTF-8"?>
<svg width="60px" height="65px" viewBox="0 0 60 65" version="1.1" xmlns="http://www.w3.org/2000/svg" xmlns:xlink="http://www.w3.org/1999/xlink">
    <!-- Generator: sketchtool 48.1 (47250) - http://www.bohemiancoding.com/sketch -->
    <title>3B5DD736-7994-4C0A-AD67-8A825F2A5D92</title>
    <desc>Created with sketchtool.</desc>
    <defs>
        <path d="M17.5530364,32.7748723 C15.159622,34.7113351 12.1121118,35.8712551 8.79352227,35.8712551 C5.4749327,35.8712551 2.42742249,34.7113351 0.0340080972,32.7748723 L0.0340080972,0.218623482 L17.5530364,0.218623482 L17.5530364,32.7748723 Z" id="path-1"></path>
    </defs>
    <g id="header" stroke="none" stroke-width="1" fill="none" fill-rule="evenodd" transform="translate(-934.000000, -18.000000)">
        <g id="Group-28">
            <g transform="translate(934.000000, 18.000000)">
                <path d="M58.1732794,17.0842105 C55.2364372,11.5481781 49.0979757,8.80323887 43.248583,9.92064777 C41.4947368,4.2291498 36.194332,0.0947368421 29.9271255,0.0947368421 C23.659919,0.0947368421 18.3595142,4.2291498 16.6032389,9.92064777 C10.7538462,8.80323887 4.61781377,11.5481781 1.67854251,17.0842105 C-0.952226721,22.0469636 -0.284210526,27.8769231 2.91012146,32.0720648 C-0.284210526,36.2647773 -0.952226721,42.0947368 1.67854251,47.0574899 C4.61781377,52.5935223 10.7538462,55.3384615 16.605668,54.2210526 C18.3595142,59.9125506 23.659919,64.0493927 29.9271255,64.0493927 C36.194332,64.0493927 41.4947368,59.9125506 43.248583,54.2210526 C49.0979757,55.3384615 55.2364372,52.5935223 58.1732794,47.0574899 C60.8064777,42.0947368 60.1384615,36.2647773 56.9441296,32.0720648 C60.1384615,27.8769231 60.8064777,22.0469636 58.1732794,17.0842105" id="Fill-11" fill="#FFFFFE"></path>
                <path d="M18.11417,26.691498 C18.4566802,26.8906883 18.9643725,26.8226721 19.2048583,26.5068826 C19.5279352,26.0817814 19.3797571,25.5060729 18.9619433,25.2607287 L12.6607287,21.5781377 C12.242915,21.3327935 11.6963563,21.502834 11.4801619,21.9910931 C11.3125506,22.3700405 11.4874494,22.817004 11.8469636,23.0259109 L18.11417,26.691498 Z M10.6396761,25.2242915 C9.11659919,24.3327935 8.47044534,22.2874494 9.30850202,20.7352227 C10.217004,19.0493927 12.3133603,18.4712551 13.9263158,19.4137652 L20.157085,23.0550607 C21.5562753,23.8736842 22.2461538,25.5740891 21.697166,27.1020243 C20.9757085,29.1206478 18.6461538,29.902834 16.8582996,28.8582996 L10.6396761,25.2242915 Z" id="Fill-21" fill="#D8232A"></path>
                <path d="M48,23.0259109 C48.357085,22.817004 48.5319838,22.3700405 48.3643725,21.9910931 C48.1481781,21.502834 47.6016194,21.3327935 47.1838057,21.5781377 L40.8825911,25.2607287 C40.4647773,25.5060729 40.3165992,26.0817814 40.6396761,26.5068826 C40.8801619,26.8226721 41.3878543,26.8906883 41.7303644,26.691498 L48,23.0259109 Z M42.9862348,28.8582996 C41.1983806,29.902834 38.8688259,29.1206478 38.1473684,27.1020243 C37.5983806,25.5740891 38.2882591,23.8736842 39.6874494,23.0550607 L45.9182186,19.4137652 C47.5311741,18.4712551 49.6275304,19.0493927 50.5360324,20.7352227 C51.3740891,22.2874494 50.7279352,24.3327935 49.2048583,25.2242915 L42.9862348,28.8582996 Z" id="Fill-23" fill="#D8232A"></path>
                <path d="M10.0129555,33.5271255 L19.5352227,33.5271255 L19.5352227,30.9692308 L9.57813765,30.9692308 C9.73846154,30.9716599 9.80161943,30.9716599 9.72631579,30.9716599 C9.0097166,30.9716599 8.32226721,31.1004049 7.68340081,31.442915 C7.30445344,31.6469636 6.99838057,31.9093117 6.76032389,32.2105263 C6.51012146,32.5530364 6.32793522,32.9489879 6.23805668,33.3813765 C6.11417004,34.1246964 6.31821862,34.9238866 6.89635628,35.5967611 C7.30202429,36.0704453 7.8340081,36.3497976 8.4437247,36.4931174 C8.19595142,36.5975709 7.95303644,36.6728745 7.73198381,36.7919028 C6.67530364,37.3603239 6.0534413,38.51417 6.24534413,39.6437247 C6.34736842,40.0979757 6.54898785,40.5133603 6.82834008,40.8680162 C6.84534413,40.8898785 6.85991903,40.9093117 6.87692308,40.9311741 C6.87692308,40.9311741 6.87692308,40.9311741 6.87935223,40.9311741 C6.96194332,41.0259109 7.05425101,41.1182186 7.15384615,41.205668 C7.84129555,41.8129555 8.66963563,42.0218623 9.5611336,42.0291498 L19.5352227,42.0291498 L19.5352227,39.4736842 L9.98623482,39.4736842 C9.49311741,39.4736842 9.09959514,39.0437247 9.15789474,38.5020243 C9.20647773,38.0817814 9.58785425,37.7781377 10.0129555,37.7781377 L19.5352227,37.7781377 L19.5352227,35.2226721 L9.98623482,35.2226721 C9.49068826,35.2226721 9.09716599,34.7902834 9.15789474,34.248583 C9.20647773,33.8283401 9.5902834,33.5271255 10.0129555,33.5271255" id="Fill-24" fill="#D8232A"></path>
                <path d="M44.1182186,33.5271255 L53.6404858,33.5271255 L53.6404858,30.9692308 L43.6834008,30.9692308 C43.8437247,30.9716599 43.9093117,30.9716599 43.8315789,30.9716599 C43.1149798,30.9716599 42.4275304,31.1004049 41.788664,31.442915 C41.4097166,31.6469636 41.1036437,31.9093117 40.865587,32.2105263 C40.6153846,32.5530364 40.4331984,32.9489879 40.3433198,33.3813765 C40.2194332,34.1246964 40.4234818,34.9238866 41.0016194,35.5967611 C41.4072874,36.0704453 41.9417004,36.3497976 42.5489879,36.4931174 C42.3012146,36.5975709 42.0582996,36.6728745 41.837247,36.7919028 C40.7805668,37.3603239 40.1587045,38.51417 40.3530364,39.6437247 C40.4526316,40.0979757 40.654251,40.5133603 40.9336032,40.8680162 C40.9506073,40.8898785 40.9651822,40.9093117 40.9821862,40.9311741 C40.9821862,40.9311741 40.9821862,40.9311741 40.9846154,40.9311741 C41.0672065,41.0259109 41.1595142,41.1182186 41.2591093,41.205668 C41.9465587,41.8129555 42.7748988,42.0218623 43.6663968,42.0291498 L53.6404858,42.0291498 L53.6404858,39.4736842 L44.091498,39.4736842 C43.5983806,39.4736842 43.2048583,39.0437247 43.2631579,38.5020243 C43.3117409,38.0817814 43.6955466,37.7781377 44.1182186,37.7781377 L53.6404858,37.7781377 L53.6404858,35.2226721 L44.091498,35.2226721 C43.5983806,35.2226721 43.2024291,34.7902834 43.265587,34.248583 C43.3117409,33.8283401 43.6955466,33.5271255 44.1182186,33.5271255" id="Fill-25" fill="#D8232A"></path>
                <path d="M35.091498,21.0898785 C34.9578947,21.5562753 34.4356275,21.842915 33.9425101,21.6340081 C33.5781377,21.4785425 33.3862348,21.0048583 33.4955466,20.6234818 L35.497166,13.6445344 C35.611336,13.2437247 36.0024291,12.9643725 36.4105263,13.0348178 C36.9376518,13.1222672 37.2364372,13.6105263 37.102834,14.0769231 L36.8526316,14.9465587 L39.2623482,15.6388664 L39.5125506,14.7668016 C40.0275304,12.9692308 38.9489879,11.0817814 37.0906883,10.6178138 C35.3781377,10.1902834 33.5562753,11.3198381 33.0704453,13.0178138 L31.0834008,19.9408907 C30.5125506,21.9327935 31.848583,23.9951417 33.9813765,24.1967611 C35.5967611,24.3497976 37.0736842,23.2639676 37.5230769,21.7044534 L37.7732794,20.8299595 L35.3635628,20.140081 L35.091498,21.0898785" id="Fill-26" fill="#D8232A"></path>
                <path d="M28.0032389,17.4194332 C27.6315789,16.3068826 26.8105263,15.7967611 25.6712551,15.9425101 C25.3603239,15.9813765 25.0518219,16.0688259 24.7481781,16.1538462 L24.2817814,16.2923077 C24.1020243,16.3384615 23.4364372,16.6153846 23.1327935,15.6097166 L22.6834008,14.108502 C22.5643725,13.7125506 22.7392713,13.265587 23.1206478,13.102834 C23.611336,12.8939271 24.1263158,13.1417004 24.2672065,13.605668 L24.5246964,14.4631579 L26.9222672,13.7368421 L26.6672065,12.8842105 C26.1303644,11.0939271 24.2016194,10.0882591 22.3870445,10.702834 C20.7157895,11.2688259 19.7951417,13.2048583 20.302834,14.8955466 L20.7327935,16.3287449 L21.0145749,17.1959514 C21.3522267,18.2550607 22.1222672,18.811336 23.1182186,18.762753 C23.3757085,18.7506073 23.6331984,18.7044534 23.88583,18.6437247 L23.8882591,18.6461538 L25.1975709,18.2453441 C25.5060729,18.162753 25.6955466,18.3595142 25.7587045,18.5757085 L26.3659919,20.5919028 C26.5044534,21.0534413 26.2202429,21.5781377 25.6931174,21.6680162 C25.3020243,21.7336032 24.8842105,21.4396761 24.7724696,21.0607287 L24.4882591,20.1157895 L24.3838057,20.1473684 L22.0882591,20.8396761 L22.3724696,21.7894737 C22.9093117,23.5700405 24.7676113,24.5708502 26.5214575,24.0437247 C28.2995951,23.5093117 29.3004049,21.6510121 28.7659919,19.8704453 L28.4842105,18.9352227 L28.3748988,18.5684211 C28.0299595,17.4558704 28.3724696,18.5246964 28.0032389,17.4194332" id="Fill-27" fill="#D8232A"></path>
                <g id="Group-20" transform="translate(21.133603, 28.178138)">
                    <mask id="mask-2" fill="white">
                        <use xlink:href="#path-1"></use>
                    </mask>
                    <g id="Clip-14"></g>
                    <polygon id="Fill-13" fill="#D8232A" mask="url(#mask-2)" points="0.0340080972 35.3198381 2.67206478 35.3198381 2.67206478 20.9878543 0.0340080972 20.9878543"></polygon>
                    <polygon id="Fill-15" fill="#D8232A" mask="url(#mask-2)" points="14.9149798 34.8947368 17.5530364 34.8947368 17.5530364 20.9878543 14.9149798 20.9878543"></polygon>
                    <polygon id="Fill-16" fill="#D8232A" mask="url(#mask-2)" points="3.75303644 35.8834008 6.39109312 35.8834008 6.39109312 12.2842105 3.75303644 12.2842105"></polygon>
                    <polygon id="Fill-17" fill="#D8232A" mask="url(#mask-2)" points="11.1935223 35.8834008 13.8315789 35.8834008 13.8315789 12.2842105 11.1935223 12.2842105"></polygon>
                    <polygon id="Fill-18" fill="#D8232A" mask="url(#mask-2)" points="7.47692308 35.8834008 10.1149798 35.8834008 10.1149798 8.81052632 7.47692308 8.81052632"></polygon>
                    <polyline id="Fill-19" fill="#D8232A" mask="url(#mask-2)" points="8.80323887 0.218623482 9.88906883 2.42186235 12.3206478 2.77651822 10.5619433 4.48906883 10.9773279 6.91093117 8.80323887 5.76923077 6.6291498 6.91093117 7.04210526 4.48906883 5.28340081 2.77651822 7.71497976 2.42186235 8.80323887 0.218623482"></polyline>
                </g>
            </g>
        </g>
    </g>
</svg>