<?xml version="1.0" encoding="UTF-8"?>
<svg width="30px" height="38px" viewBox="0 0 30 38" version="1.1" xmlns="http://www.w3.org/2000/svg" xmlns:xlink="http://www.w3.org/1999/xlink">
    <!-- Generator: sketchtool 48.1 (47250) - http://www.bohemiancoding.com/sketch -->
    <title>88212963-6CEB-4504-90FA-4CF81F08E755</title>
    <desc>Created with sketchtool.</desc>
    <defs>
        <path d="M178,55 L171.056393,63 L164,55 L158,55 C156.895431,55 156,54.1045695 156,53 L156,27 C156,25.8954305 156.895431,25 158,25 L184,25 C185.104569,25 186,25.8954305 186,27 L186,53 C186,54.1045695 185.104569,55 184,55 L178,55 Z" id="path-1"></path>
    </defs>
    <g id="iconset" stroke="none" stroke-width="1" fill="none" fill-rule="evenodd" transform="translate(-156.000000, -25.000000)">
        <g id="Combined-Shape">
            <use fill="#233881" fill-rule="evenodd" xlink:href="#path-1"></use>
            <path stroke="#FFFFFF" stroke-width="1" d="M171.053362,62.2406978 L177.771907,54.5 L184,54.5 C184.828427,54.5 185.5,53.8284271 185.5,53 L185.5,27 C185.5,26.1715729 184.828427,25.5 184,25.5 L158,25.5 C157.171573,25.5 156.5,26.1715729 156.5,27 L156.5,53 C156.5,53.8284271 157.171573,54.5 158,54.5 L164.225686,54.5 L171.053362,62.2406978 Z"></path>
        </g>
        <g id="Group-12" transform="translate(161.000000, 30.000000)">
            <path d="M19.2513462,7.72153846 C20.2181538,7.72153846 21,6.93726923 21,5.97288462 C21,5.00769231 20.2181538,4.22907692 19.2513462,4.22907692 C18.2893846,4.22907692 17.5051154,5.00769231 17.5051154,5.97288462 C17.5051154,6.93726923 18.2893846,7.72153846 19.2513462,7.72153846" id="Fill-31" stroke="#FFFFFF"></path>
            <path d="M18.3895385,20.3078077 C19.2335769,20.8077692 20.3215385,20.5347692 20.8247308,19.6891154 L20.2133077,19.3224231 C19.9144615,19.8280385 19.2594231,19.9879615 18.7586538,19.6891154 L0.361038462,8.88703846 L0,9.50330769 L18.3895385,20.3078077" id="Fill-32" fill="#FFFFFF"></path>
            <path d="M11.7301154,1.03626923 C10.668,0.321461538 9.23111538,0.602538462 8.51388462,1.67030769 C8.11973077,2.25346154 8.01069231,2.99088462 8.20453846,3.58938462 L9.42657692,7.59230769 L5.73865385,8.76911538 C5.27746154,8.95488462 4.92126923,9.38780769 4.85907692,9.91926923 C4.76376923,10.6978846 5.3445,11.214 6.12553846,11.3068846 C6.30323077,11.3278846 6.42196154,11.2761923 6.58753846,11.2341923 L11.6218846,9.56792308 C11.991,9.43384615 12.3956538,9.06796154 12.4344231,8.74811538 C12.4626923,8.51630769 12.5378077,8.31923077 12.4885385,8.18030769 L11.7228462,5.44142308 L14.7500769,7.24176923 L15.1167692,9.86676923 C15.1474615,10.3263462 15.3566538,10.6566923 15.7096154,10.8521538 L19.6665,13.1637692 C20.0994231,13.4004231 20.6470385,13.2405 20.8836923,12.8027308 C21.1235769,12.369 20.9612308,11.8173462 20.5283077,11.5798846 L17.4001154,9.75369231 L17.0382692,5.07473077 C16.9841538,4.515 16.6796538,4.01261538 16.2362308,3.70326923 L11.7301154,1.03626923" id="Fill-34" stroke="#FFFFFF"></path>
        </g>
    </g>
</svg>