<?xml version="1.0" encoding="UTF-8"?>
<svg width="30px" height="38px" viewBox="0 0 30 38" version="1.1" xmlns="http://www.w3.org/2000/svg" xmlns:xlink="http://www.w3.org/1999/xlink">
    <!-- Generator: sketchtool 48.1 (47250) - http://www.bohemiancoding.com/sketch -->
    <title>A296445F-0430-4DC8-8DC0-7A61F2DF6318</title>
    <desc>Created with sketchtool.</desc>
    <defs>
        <path d="M22,30 L15.0563935,38 L8,30 L2,30 C0.8954305,30 1.3527075e-16,29.1045695 0,28 L0,2 C-1.3527075e-16,0.8954305 0.8954305,2.02906125e-16 2,0 L28,0 C29.1045695,-2.02906125e-16 30,0.8954305 30,2 L30,28 C30,29.1045695 29.1045695,30 28,30 L22,30 Z" id="path-1"></path>
    </defs>
    <g id="iconset" stroke="none" stroke-width="1" fill="none" fill-rule="evenodd" transform="translate(-156.000000, -185.000000)">
        <g id="Group-3" transform="translate(156.000000, 185.000000)">
            <g id="Combined-Shape-Copy-4">
                <use fill="#233881" fill-rule="evenodd" xlink:href="#path-1"></use>
                <path stroke="#FFFFFF" stroke-width="1" d="M15.0533619,37.2406978 L21.7719069,29.5 L28,29.5 C28.8284271,29.5 29.5,28.8284271 29.5,28 L29.5,2 C29.5,1.17157288 28.8284271,0.5 28,0.5 L2,0.5 C1.17157288,0.5 0.5,1.17157288 0.5,2 L0.5,28 C0.5,28.8284271 1.17157288,29.5 2,29.5 L8.22568576,29.5 L15.0533619,37.2406978 Z"></path>
            </g>
            <g id="Group-17-Copy-2" transform="translate(4.000000, 7.000000)" fill="#FFFFFF">
                <g id="Group-9" transform="translate(0.500000, 0.500000)">
                    <path d="M19.80525,10.74675 C19.80525,11.93325 18.83925,12.89925 17.65275,12.89925 L7.317,12.89925 C6.1455,12.89925 5.19,11.95875 5.16525,10.794 C5.16675,10.7775 5.16825,10.7625 5.16825,10.74675 C5.16825,10.728 5.166,10.70925 5.1645,10.692 L5.1645,8.163 C5.1645,6.97575 6.1305,6.00975 7.317,6.00975 L17.65275,6.00975 C18.84,6.00975 19.80525,6.97575 19.80525,8.163 L19.80525,10.74675 Z M7.926,4.7175 L17.043,4.7175 L17.4735,5.148 L7.4955,5.148 L7.926,4.7175 Z M13.77675,2.13375 L9.47025,2.13375 C9.23325,2.13375 9.03975,1.941 9.03975,1.70325 C9.03975,1.4655 9.23325,1.272 9.47025,1.272 L13.77675,1.272 C14.964,1.272 15.93,2.238 15.93,3.42525 L15.93,3.8565 L15.06825,3.8565 L15.06825,3.42525 C15.06825,2.7135 14.4885,2.13375 13.77675,2.13375 Z M18.91575,5.42625 C18.89475,5.37075 18.8625,5.319 18.81825,5.274 L17.526,3.9825 C17.44575,3.9015 17.3355,3.8565 17.2215,3.8565 L16.791,3.8565 L16.791,3.42525 C16.791,1.764 15.43875,0.411 13.77675,0.411 L9.47025,0.411 C8.7585,0.411 8.178,0.99075 8.178,1.70325 C8.178,2.41575 8.7585,2.99475 9.47025,2.99475 L13.77675,2.99475 C14.0145,2.99475 14.20725,3.18825 14.20725,3.42525 L14.20725,3.8565 L7.7475,3.8565 C7.6335,3.8565 7.524,3.9015 7.44375,3.98325 L6.1515,5.274 C6.108,5.319 6.075,5.37075 6.05325,5.42625 C5.0205,5.9055 4.30275,6.95175 4.30275,8.163 L4.30275,10.3155 L3.02025,10.3155 C2.7825,10.3155 2.58975,10.509 2.58975,10.74675 C2.58975,10.9845 2.7825,11.1765 3.02025,11.1765 L4.3335,11.1765 C4.4295,11.84775 4.7475,12.447 5.2095,12.89925 L2.163,12.89925 C1.92525,12.89925 1.7325,13.09275 1.7325,13.3305 C1.7325,13.56825 1.92525,13.761 2.163,13.761 L17.652,13.761 C19.314,13.761 20.667,12.4095 20.667,10.74675 L20.667,8.163 C20.667,6.95175 19.9485,5.9055 18.91575,5.42625 Z" id="Fill-26"></path>
                    <path d="M3.4455,8.163 C3.4455,7.9245 3.25275,7.7325 3.015,7.7325 L0.4365,7.7325 C0.19875,7.7325 0.006,7.9245 0.006,8.163 C0.006,8.4 0.19875,8.5935 0.4365,8.5935 L3.015,8.5935 C3.25275,8.5935 3.4455,8.4 3.4455,8.163" id="Fill-27"></path>
                    <path d="M3.02025,6.00975 L4.734,6.00975 C4.971,6.00975 5.1645,5.817 5.1645,5.57925 C5.1645,5.3415 4.971,5.148 4.734,5.148 L3.02025,5.148 C2.7825,5.148 2.58975,5.3415 2.58975,5.57925 C2.58975,5.817 2.7825,6.00975 3.02025,6.00975" id="Fill-28"></path>
                    <path d="M17.2215,6.44025 C16.98375,6.44025 16.791,6.63375 16.791,6.87075 C16.791,7.10925 16.98375,7.30125 17.2215,7.30125 C17.766,7.30125 18.14625,7.44525 18.3525,7.7295 C18.4995,7.932 18.513,8.14875 18.51375,8.1675 L18.51375,10.74675 C18.51375,10.9845 18.7065,11.1765 18.94425,11.1765 C19.182,11.1765 19.37475,10.9845 19.37475,10.74675 L19.37475,8.163 C19.37475,8.1165 19.3665,7.69725 19.0875,7.278 C18.8325,6.8955 18.3015,6.44025 17.2215,6.44025" id="Fill-29"></path>
                </g>
            </g>
        </g>
    </g>
</svg>