<?xml version="1.0" encoding="UTF-8"?>
<svg width="30px" height="38px" viewBox="0 0 30 38" version="1.1" xmlns="http://www.w3.org/2000/svg" xmlns:xlink="http://www.w3.org/1999/xlink">
    <!-- Generator: sketchtool 48.1 (47250) - http://www.bohemiancoding.com/sketch -->
    <title>8B345215-B24C-4583-8BBA-981969576274</title>
    <desc>Created with sketchtool.</desc>
    <defs>
        <path d="M22,30 L15.0563935,38 L8,30 L2,30 C0.8954305,30 1.3527075e-16,29.1045695 0,28 L0,2 C-1.3527075e-16,0.8954305 0.8954305,2.02906125e-16 2,0 L28,0 C29.1045695,-2.02906125e-16 30,0.8954305 30,2 L30,28 C30,29.1045695 29.1045695,30 28,30 L22,30 Z" id="path-1"></path>
    </defs>
    <g id="iconset" stroke="none" stroke-width="1" fill="none" fill-rule="evenodd" transform="translate(-156.000000, -105.000000)">
        <g id="Group-2" transform="translate(156.000000, 105.000000)">
            <g id="Combined-Shape-Copy-2">
                <use fill="#233881" fill-rule="evenodd" xlink:href="#path-1"></use>
                <path stroke="#FFFFFF" stroke-width="1" d="M15.0533619,37.2406978 L21.7719069,29.5 L28,29.5 C28.8284271,29.5 29.5,28.8284271 29.5,28 L29.5,2 C29.5,1.17157288 28.8284271,0.5 28,0.5 L2,0.5 C1.17157288,0.5 0.5,1.17157288 0.5,2 L0.5,28 C0.5,28.8284271 1.17157288,29.5 2,29.5 L8.22568576,29.5 L15.0533619,37.2406978 Z"></path>
            </g>
            <g id="Group-15-Copy-2" transform="translate(4.000000, 6.000000)" fill="#FFFFFF">
                <g id="Group-7" transform="translate(0.500000, 0.000000)">
                    <path d="M14.7202222,10.6205556 C14.7202222,10.619 14.7202222,10.6182222 14.7202222,10.6166667 C14.5234444,10.6166667 14.3266667,10.6057778 14.1314444,10.6182222 C13.5971111,10.6532222 13.1778889,11.0934444 13.16,11.6246667 C13.1428889,12.1527778 13.5348889,12.6412222 14.0668889,12.6847778 C14.5032222,12.7197778 14.9465556,12.7182222 15.3828889,12.6824444 C15.8876667,12.6412222 16.2804444,12.1582222 16.2757778,11.6503333 C16.2718889,11.1331111 15.8612222,10.6687778 15.3486667,10.6236667 C15.1402222,10.605 14.9294444,10.6205556 14.7202222,10.6205556 Z M9.64366667,12.6964444 C9.64366667,12.6987778 9.64366667,12.7011111 9.64366667,12.7034444 C10.1064444,12.7034444 10.5684444,12.7034444 11.032,12.7026667 C11.067,12.7026667 11.1012222,12.6972222 11.1362222,12.6933333 C11.7786667,12.6202222 12.2087778,11.963 12.0151111,11.3532222 C11.8696667,10.8927778 11.4807778,10.6151111 10.9386667,10.6096667 C10.1041111,10.6011111 9.27033333,10.6034444 8.43577778,10.605 C8.31055556,10.605 8.18144444,10.6135556 8.06011111,10.6423333 C7.56777778,10.759 7.21777778,11.2427778 7.259,11.7351111 C7.301,12.2391111 7.70544444,12.6653333 8.21411111,12.6917778 C8.68933333,12.7158889 9.16688889,12.6964444 9.64366667,12.6964444 Z M20.2261111,14.4145556 C13.7752222,14.4145556 7.33755556,14.4145556 0.900666667,14.4145556 C0.900666667,15.2483333 0.900666667,16.065 0.900666667,16.8832222 C7.34844444,16.8832222 13.783,16.8832222 20.2261111,16.8832222 C20.2261111,16.0548889 20.2261111,15.2382222 20.2261111,14.4145556 Z M8.82233333,1.33933333 C7.61988889,1.22966667 6.43144444,1.10755556 5.22044444,1.25533333 C5.22044444,1.88066667 5.23288889,2.48266667 5.21811111,3.08388889 C5.194,4.01722222 5.11311111,4.942 4.79422222,5.83411111 C4.61844444,6.32644444 4.473,6.83355556 4.35633333,7.34377778 C4.13855556,8.29266667 4.52277778,9.016 5.41488889,9.33411111 C5.70655556,9.43755556 6.02855556,9.50444444 6.33655556,9.506 C9.13422222,9.52155556 11.9311111,9.51922222 14.7287778,9.52155556 C14.7777778,9.52155556 14.8267778,9.52311111 14.8757778,9.52 C15.267,9.49744444 15.5851111,9.25944444 15.6978889,8.90711111 C15.8285556,8.498 15.7507778,8.16977778 15.3953333,7.92166667 C15.1658889,7.76144444 14.8991111,7.62611111 14.6292222,7.55844444 C13.7977778,7.34844444 12.9803333,7.112 12.2118889,6.72544444 C12.1761111,6.70755556 12.1372222,6.69666667 12.0983333,6.68188889 C11.9497778,6.86544444 11.8144444,7.04433333 11.6682222,7.21311111 C11.4535556,7.45811111 11.1354444,7.48533333 10.8982222,7.28933333 C10.6734444,7.10344444 10.6384444,6.79077778 10.822,6.53488889 C10.9277778,6.38711111 11.0452222,6.24711111 11.1657778,6.09311111 C11.0382222,5.98966667 10.9145556,5.88933333 10.7831111,5.78355556 C10.5816667,5.92433333 10.3887778,6.06355556 10.1912222,6.195 C9.91433333,6.37933333 9.58766667,6.32255556 9.41188889,6.06588889 C9.24,5.81466667 9.29911111,5.50666667 9.562,5.30833333 C9.71288889,5.19555556 9.86766667,5.08822222 10.0294444,4.97233333 C9.95944444,4.87355556 9.89644444,4.78411111 9.83966667,4.704 C9.81711111,4.70166667 9.80933333,4.69855556 9.80311111,4.70011111 C9.56822222,4.76855556 9.33411111,4.83855556 9.09922222,4.907 C8.74688889,5.01044444 8.46066667,4.87122222 8.36344444,4.54922222 C8.27555556,4.25988889 8.43811111,3.98144444 8.76477778,3.87177778 C8.94211111,3.81188889 9.12177778,3.76055556 9.29833333,3.70611111 C9.22755556,3.34522222 9.22755556,3.34522222 8.90866667,3.34522222 C8.73366667,3.34522222 8.55788889,3.34677778 8.38288889,3.34444444 C8.01344444,3.33977778 7.777,3.11966667 7.78088889,2.78833333 C7.78477778,2.46633333 8.01888889,2.25555556 8.379,2.25166667 C8.55788889,2.24933333 8.73677778,2.25088889 8.92188889,2.25088889 C8.88766667,1.93666667 8.85655556,1.652 8.82233333,1.33933333 Z M16.4095556,9.86533333 C17.7854444,10.8616667 17.6454444,12.789 16.128,13.6103333 C17.78,13.6103333 19.3853333,13.6103333 21,13.6103333 C21,14.9722222 21,16.3092222 21,17.6788889 C20.9191111,17.6788889 20.8444444,17.6788889 20.7705556,17.6788889 C13.9611111,17.6788889 7.15244444,17.6788889 0.343,17.6827778 C0.155555556,17.6827778 0.0902222222,17.6407778 0.0917777778,17.4401111 C0.101888889,16.2407778 0.0972222222,15.0414444 0.0972222222,13.8428889 C0.0972222222,13.7744444 0.0972222222,13.706 0.0972222222,13.6196667 C1.23666667,13.6196667 2.35588889,13.6196667 3.49066667,13.6196667 C3.47744444,13.5745556 3.472,13.5488889 3.46266667,13.5255556 C3.27366667,13.0798889 3.507,12.7166667 3.99466667,12.7065556 C4.37966667,12.698 4.76777778,12.7221111 5.15044444,12.6878889 C5.91266667,12.6194444 6.38088889,11.7802222 6.05655556,11.0895556 C5.90177778,10.7605556 5.64044444,10.5536667 5.29044444,10.4502222 C4.627,10.2542222 4.05844444,9.912 3.66255556,9.32711111 C3.18811111,8.62633333 3.10411111,7.85477778 3.30633333,7.05288889 C3.458,6.45088889 3.64466667,5.85588889 3.83444444,5.26477778 C4.03744444,4.62933333 4.10044444,3.97366667 4.11522222,3.31566667 C4.13233333,2.51688889 4.109,1.71811111 4.09966667,0.918555556 C4.09577778,0.633111111 4.20777778,0.412222222 4.48855556,0.340666667 C4.893,0.236444444 5.30833333,0.141555556 5.72288889,0.117444444 C6.96577778,0.0458888889 8.20166667,0.164111111 9.43366667,0.316555556 C9.72455556,0.353111111 9.884,0.564666667 9.91433333,0.889777778 C9.96333333,1.42566667 9.98044444,1.97011111 10.0877778,2.49511111 C10.4323333,4.17122222 11.4823333,5.27333333 13.0332222,5.90644444 C13.6398889,6.15377778 14.2807778,6.32177778 14.9154444,6.49055556 C15.4956667,6.64533333 15.9957778,6.91522222 16.3916667,7.36477778 C16.9298889,7.97611111 16.9882222,8.93277778 16.5433333,9.65922222 C16.5028889,9.72455556 16.4601111,9.78755556 16.4095556,9.86533333 Z" id="Fill-1"></path>
                    <path d="M17.9931111,3.55677778 C17.8865556,3.70688889 17.7901111,3.84377778 17.6781111,4.00088889 C17.5606667,3.91688889 17.4502222,3.83833333 17.325,3.74888889 C17.4276667,3.59488889 17.5217778,3.45177778 17.6267778,3.29388889 C17.4525556,3.23166667 17.2915556,3.17488889 17.1142222,3.11188889 C17.1546667,2.97655556 17.192,2.85211111 17.2363333,2.70433333 C17.4105556,2.75488889 17.5746667,2.80233333 17.766,2.85677778 C17.766,2.66622222 17.766,2.49511111 17.766,2.30922222 C17.9238889,2.30922222 18.0592222,2.30922222 18.2171111,2.30922222 C18.2171111,2.48344444 18.2171111,2.66233333 18.2171111,2.86222222 C18.4092222,2.80622222 18.5748889,2.758 18.7553333,2.70511111 C18.802,2.84588889 18.8455556,2.975 18.8922222,3.11266667 C18.7117778,3.17333333 18.5492222,3.22933333 18.361,3.29233333 C18.4698889,3.451 18.5663333,3.59333333 18.669,3.74422222 C18.5562222,3.82666667 18.4504444,3.90444444 18.3228889,3.997 C18.2132222,3.85077778 18.1105556,3.71388889 17.9931111,3.55677778" id="Fill-2"></path>
                    <path d="M1.36266667,10.9985556 C1.25533333,11.1471111 1.15422222,11.2863333 1.04222222,11.4403333 C0.919333333,11.3524444 0.809666667,11.2738889 0.689888889,11.1883333 C0.794111111,11.0327778 0.890555556,10.8896667 0.997111111,10.7302222 C0.818222222,10.6711111 0.661888889,10.619 0.481444444,10.5583333 C0.520333333,10.4237778 0.558444444,10.2946667 0.602777778,10.1445556 C0.784,10.1982222 0.948111111,10.2472222 1.134,10.3024444 C1.134,10.1111111 1.134,9.93922222 1.134,9.75488889 C1.28722222,9.75488889 1.42255556,9.75488889 1.582,9.75488889 C1.582,9.92988889 1.582,10.1017778 1.582,10.3063333 C1.77488889,10.248 1.93744444,10.1997778 2.12177778,10.1445556 C2.16766667,10.283 2.20811111,10.4058889 2.25633333,10.5513333 C2.07588889,10.6127778 1.90944444,10.6703333 1.72744444,10.7325556 C1.83244444,10.8881111 1.92888889,11.0312222 2.03466667,11.1883333 C1.91722222,11.2731111 1.80755556,11.3532222 1.68311111,11.4434444 C1.57344444,11.2917778 1.47388889,11.1525556 1.36266667,10.9985556" id="Fill-3"></path>
                    <path d="M19.9842222,9.961 C19.7991111,10.0224444 19.6404444,10.0753333 19.4584444,10.1367778 C19.5587778,10.2876667 19.6521111,10.4292222 19.761,10.5941111 C19.649,10.6765556 19.5385556,10.7566667 19.4133333,10.8484444 C19.3067778,10.7014444 19.2056667,10.5622222 19.0928889,10.4058889 C18.9847778,10.5528889 18.8836667,10.6905556 18.7685556,10.8468889 C18.6526667,10.7636667 18.5422222,10.6843333 18.4146667,10.5925556 C18.5165556,10.4463333 18.6153333,10.3047778 18.7273333,10.143 C18.557,10.0823333 18.3975556,10.0263333 18.2147778,9.96177778 C18.2513333,9.82877778 18.2863333,9.69966667 18.3275556,9.55188889 C18.5087778,9.604 18.6744444,9.65144444 18.8665556,9.70744444 C18.8665556,9.51611111 18.8665556,9.34422222 18.8665556,9.16222222 C19.0213333,9.16222222 19.1527778,9.16222222 19.3091111,9.16222222 C19.3091111,9.33411111 19.3091111,9.51144444 19.3091111,9.71522222 C19.4312222,9.67711111 19.5284444,9.65844444 19.6147778,9.61722222 C19.8022222,9.52777778 19.8994444,9.58455556 19.9313333,9.78444444 C19.9391111,9.83811111 19.9624444,9.88866667 19.9842222,9.961" id="Fill-4"></path>
                    <path d="M12.4903333,1.827 C12.6707778,1.88222222 12.8348889,1.932 13.0285556,1.99111111 C13.0285556,1.79744444 13.0285556,1.62633333 13.0285556,1.44122222 C13.1833333,1.44122222 13.3132222,1.44122222 13.461,1.44122222 C13.461,1.61777778 13.461,1.79044444 13.461,1.988 C13.6538889,1.932 13.8234444,1.883 14.0062222,1.82933333 C14.0528889,1.967 14.098,2.09611111 14.1454444,2.23688889 C13.9696667,2.29677778 13.8071111,2.35355556 13.615,2.41888889 C13.7207778,2.57444444 13.8172222,2.71522222 13.9214444,2.86766667 C13.8078889,2.95244444 13.6966667,3.03488889 13.5737778,3.12822222 C13.4641111,2.97811111 13.3591111,2.835 13.2463333,2.68022222 C13.1351111,2.83811111 13.0394444,2.97422222 12.9328889,3.12511111 C12.8107778,3.03877778 12.6987778,2.96022222 12.5751111,2.87311111 C12.6785556,2.72066667 12.7757778,2.57911111 12.8854444,2.41888889 C12.7088889,2.35666667 12.5463333,2.29988889 12.3666667,2.23688889 C12.4078889,2.09922222 12.4467778,1.96933333 12.4903333,1.827" id="Fill-5"></path>
                    <path d="M12.9406667,15.2778889 C13.1491111,15.2164444 13.3015556,15.1705556 13.4781111,15.1184444 C13.5247778,15.2514444 13.5691111,15.3782222 13.6196667,15.5236667 C13.4384444,15.5866667 13.2766667,15.6426667 13.0931111,15.7072222 C13.1934444,15.8581111 13.2883333,15.9996667 13.3964444,16.1606667 C13.2805556,16.2446667 13.1708889,16.324 13.0456667,16.4142222 C12.9352222,16.2625556 12.8348889,16.1248889 12.7236667,15.9724444 C12.6163333,16.1202222 12.5152222,16.2594444 12.404,16.4111111 C12.2795556,16.324 12.1722222,16.2493333 12.0493333,16.163 C12.1496667,16.0152222 12.2453333,15.8736667 12.3581111,15.708 C12.1846667,15.6473333 12.0236667,15.5913333 11.8432222,15.5275556 C11.8821111,15.3945556 11.9202222,15.2646667 11.963,15.1176667 C12.1426667,15.1713333 12.3075556,15.2211111 12.4934444,15.2771111 C12.4934444,15.0888889 12.4934444,14.9177778 12.4934444,14.6797778 C12.6622222,14.7233333 12.8652222,14.7178889 12.9243333,14.8065556 C12.9943333,14.9115556 12.9406667,15.099 12.9406667,15.2778889" id="Fill-6"></path>
                    <path d="M4.52977778,15.12 C4.57566667,15.2592222 4.61766667,15.3891111 4.66277778,15.5267778 C4.48622222,15.5866667 4.32211111,15.6418889 4.13311111,15.7064444 C4.23655556,15.8588889 4.33222222,15.9996667 4.43877778,16.1575556 C4.32133333,16.2438889 4.21244444,16.324 4.08955556,16.415 C3.97677778,16.2602222 3.87566667,16.1202222 3.76755556,15.9708889 C3.66333333,16.1155556 3.56611111,16.2508889 3.45177778,16.4103333 C3.33355556,16.3286667 3.22233333,16.2524444 3.09244444,16.163 C3.199,16.0066667 3.29466667,15.8666667 3.402,15.7087778 C3.22466667,15.6457778 3.06988889,15.5913333 2.89022222,15.5275556 C2.92833333,15.3922222 2.96566667,15.2615556 3.00533333,15.1184444 C3.185,15.1713333 3.35066667,15.2195556 3.53811111,15.2747778 C3.53811111,15.0826667 3.53811111,14.9107778 3.53811111,14.6844444 C3.70455556,14.721 3.91066667,14.7077778 3.96511111,14.7925556 C4.03511111,14.8998889 3.98222222,15.0873333 3.98222222,15.2732222 C4.179,15.2187778 4.34777778,15.1713333 4.52977778,15.12" id="Fill-7"></path>
                    <path d="M17.5443333,15.2817778 C17.7411111,15.2226667 17.9052222,15.1736667 18.0895556,15.1184444 C18.1385556,15.2568889 18.1836667,15.386 18.2326667,15.526 C18.0568889,15.5843333 17.8927778,15.6403333 17.6998889,15.7048889 C17.8072222,15.8635556 17.9067778,16.0097778 18.0086667,16.1606667 C17.8974444,16.2407778 17.7901111,16.3177778 17.6602222,16.4111111 C17.5528889,16.268 17.4502222,16.1318889 17.3312222,15.9747778 C17.2254444,16.1217778 17.1266667,16.2594444 17.0146667,16.4173333 C16.8894444,16.3263333 16.779,16.2462222 16.66,16.1598889 C16.7626667,16.0082222 16.8598889,15.8658889 16.9687778,15.7041111 C16.7875556,15.6426667 16.625,15.5882222 16.4484444,15.5283333 C16.492,15.3898889 16.5324444,15.26 16.5767778,15.1184444 C16.7587778,15.1713333 16.9221111,15.2195556 17.1196667,15.2763333 C17.1196667,15.0764444 17.1196667,14.9061111 17.1196667,14.7256667 C17.2705556,14.7256667 17.3942222,14.7256667 17.5443333,14.7256667 C17.5443333,14.903 17.5443333,15.0803333 17.5443333,15.2817778" id="Fill-8"></path>
                    <path d="M7.33366667,15.5267778 C7.378,15.3852222 7.41688889,15.26 7.46044444,15.1184444 C7.63933333,15.1721111 7.80422222,15.2218889 7.99011111,15.2778889 C7.99011111,15.0896667 7.99011111,14.9177778 7.99011111,14.6875556 C8.155,14.7225556 8.36188889,14.7085556 8.41322222,14.791 C8.48166667,14.9014444 8.43033333,15.0865556 8.43033333,15.2755556 C8.624,15.2195556 8.78655556,15.1721111 8.97322222,15.1184444 C9.01988889,15.2506667 9.06422222,15.3782222 9.11555556,15.5236667 C8.93511111,15.5866667 8.77255556,15.6426667 8.58588889,15.708 C8.687,15.8581111 8.78266667,15.9996667 8.89233333,16.1614444 C8.77722222,16.2438889 8.66755556,16.3224444 8.54155556,16.4134444 C8.43111111,16.2633333 8.33,16.1256667 8.21877778,15.9732222 C8.10988889,16.1225556 8.008,16.2602222 7.89522222,16.415 C7.77311111,16.3263333 7.66733333,16.2501111 7.54522222,16.1614444 C7.644,16.016 7.74044444,15.8744444 7.854,15.7064444 C7.67977778,15.6465556 7.51877778,15.5913333 7.33366667,15.5267778" id="Fill-9"></path>
                </g>
            </g>
        </g>
    </g>
</svg>