<?xml version="1.0" encoding="UTF-8"?>
<svg width="30px" height="38px" viewBox="0 0 30 38" version="1.1" xmlns="http://www.w3.org/2000/svg" xmlns:xlink="http://www.w3.org/1999/xlink">
    <!-- Generator: sketchtool 48.1 (47250) - http://www.bohemiancoding.com/sketch -->
    <title>DF136097-53F3-4E7C-A18F-6AA92C6179ED</title>
    <desc>Created with sketchtool.</desc>
    <defs>
        <path d="M22,30 L15.0563935,38 L8,30 L2,30 C0.8954305,30 1.3527075e-16,29.1045695 0,28 L0,2 C-1.3527075e-16,0.8954305 0.8954305,2.02906125e-16 2,0 L28,0 C29.1045695,-2.02906125e-16 30,0.8954305 30,2 L30,28 C30,29.1045695 29.1045695,30 28,30 L22,30 Z" id="path-1"></path>
    </defs>
    <g id="iconset" stroke="none" stroke-width="1" fill="none" fill-rule="evenodd" transform="translate(-203.000000, -65.000000)">
        <g id="Group-Copy" transform="translate(203.000000, 65.000000)">
            <g id="Combined-Shape-Copy">
                <use fill="#D4232E" fill-rule="evenodd" xlink:href="#path-1"></use>
                <path stroke="#FFFFFF" stroke-width="1" d="M15.0533619,37.2406978 L21.7719069,29.5 L28,29.5 C28.8284271,29.5 29.5,28.8284271 29.5,28 L29.5,2 C29.5,1.17157288 28.8284271,0.5 28,0.5 L2,0.5 C1.17157288,0.5 0.5,1.17157288 0.5,2 L0.5,28 C0.5,28.8284271 1.17157288,29.5 2,29.5 L8.22568576,29.5 L15.0533619,37.2406978 Z"></path>
            </g>
            <g id="Group-14-Copy-2" transform="translate(4.000000, 5.000000)" fill="#FFFFFF">
                <g id="Group-6" transform="translate(0.500000, 0.711538)">
                    <path d="M19.3135385,17.2054615 C19.4718462,17.2054615 19.5970385,17.1957692 19.7198077,17.2078846 C19.8708462,17.2240385 19.9475769,17.1586154 20.0404615,17.0390769 C20.3385,16.6546154 20.1801923,16.2273462 20.1769615,15.8081538 C19.8950769,16.2636923 19.614,16.7192308 19.3135385,17.2054615 Z M0.7665,16.0868077 C0.782653846,16.0924615 0.798,16.0981154 0.814153846,16.1037692 C1.09603846,15.6458077 1.37792308,15.1878462 1.68161538,14.6951538 C1.5435,14.6951538 1.45869231,14.6878846 1.37630769,14.6967692 C1.26242308,14.7088846 1.10088462,14.6935385 1.04838462,14.7597692 C0.925615385,14.9132308 0.810923077,15.1014231 0.777807692,15.2904231 C0.732576923,15.5488846 0.7665,15.8202692 0.7665,16.0868077 Z M20.2076538,14.7169615 C20.0178462,14.6563846 19.9023462,14.7088846 19.8021923,14.8793077 C19.5251538,15.3526154 19.2287308,15.8154231 18.9403846,16.2822692 C18.7570385,16.5786923 18.5745,16.8759231 18.3717692,17.2054615 C18.5333077,17.2054615 18.6585,17.1941538 18.7812692,17.2086923 C18.9363462,17.2256538 19.0171154,17.1618462 19.0962692,17.031 C19.4136923,16.4995385 19.7351538,15.9696923 20.0768077,15.4535769 C20.2351154,15.2145 20.2391538,14.9738077 20.2076538,14.7169615 Z M2.62580769,14.6951538 C2.47396154,14.6951538 2.37380769,14.7080769 2.2785,14.6927308 C2.07334615,14.6604231 1.96430769,14.7533077 1.86253846,14.9245385 C1.55561538,15.4455 1.23980769,15.9624231 0.907038462,16.4672308 C0.753576923,16.6998462 0.751153846,16.9356923 0.780230769,17.1852692 C0.9765,17.2466538 1.09765385,17.1909231 1.19942308,17.0140385 C1.43769231,16.5996923 1.69938462,16.1982692 1.95057692,15.7911923 C2.16784615,15.4398462 2.3835,15.0876923 2.62580769,14.6951538 Z M5.17407692,17.2054615 C5.32430769,17.2054615 5.43576923,17.1933462 5.544,17.2078846 C5.72007692,17.2321154 5.82103846,17.1658846 5.91311538,17.0124231 C6.34846154,16.2911538 6.79673077,15.5763462 7.23934615,14.8591154 C7.26680769,14.8146923 7.28538462,14.7654231 7.3185,14.6951538 C7.20057692,14.6951538 7.10769231,14.7056538 7.01884615,14.6927308 C6.80319231,14.6612308 6.67557692,14.7484615 6.56815385,14.9382692 C6.35411538,15.3170769 6.11261538,15.6813462 5.88403846,16.0512692 C5.65303846,16.4252308 5.42365385,16.8 5.17407692,17.2054615 Z M8.28207692,14.6951538 C8.15284615,14.6951538 8.06884615,14.7064615 7.98969231,14.6935385 C7.74657692,14.6531538 7.6125,14.7621923 7.49053846,14.9681538 C7.08588462,15.6514615 6.66103846,16.3218462 6.24346154,16.9970769 C6.2055,17.0592692 6.16834615,17.1214615 6.11826923,17.2054615 C6.26203846,17.2054615 6.36865385,17.1949615 6.47284615,17.2078846 C6.66426923,17.2321154 6.77169231,17.157 6.87103846,16.9881923 C7.18926923,16.4421923 7.53011538,15.9083077 7.86207692,15.3703846 C7.99373077,15.1587692 8.12619231,14.9471538 8.28207692,14.6951538 Z M7.99938462,17.2054615 C8.15769231,17.2054615 8.27076923,17.1925385 8.37980769,17.2086923 C8.55992308,17.2345385 8.65926923,17.1578077 8.74569231,17.0051538 C8.91530769,16.7063077 9.10511538,16.4179615 9.28603846,16.1247692 C9.57276923,15.6603462 9.85869231,15.1959231 10.1486538,14.7258462 C9.64303846,14.6248846 9.57276923,14.6547692 9.33288462,15.0521538 C9.30703846,15.0941538 9.28038462,15.1353462 9.25453846,15.1765385 C8.84503846,15.8388462 8.43473077,16.5011538 7.99938462,17.2054615 Z M11.109,14.6951538 C10.9547308,14.6951538 10.8432692,14.7072692 10.7358462,14.6927308 C10.5557308,14.6676923 10.458,14.7436154 10.3675385,14.8954615 C10.0355769,15.4503462 9.68907692,15.9963462 9.34903846,16.5463846 C9.21819231,16.758 9.08976923,16.9712308 8.94680769,17.2054615 C9.09057692,17.2054615 9.198,17.1941538 9.30138462,17.2078846 C9.49442308,17.2345385 9.60184615,17.1545769 9.69957692,16.9873846 C9.96369231,16.5318462 10.2504231,16.0892308 10.5274615,15.6409615 C10.7148462,15.3388846 10.8998077,15.036 11.109,14.6951538 Z M14.5958077,17.2054615 C14.7468462,17.2054615 14.8518462,17.1949615 14.9536154,17.2078846 C15.1450385,17.2329231 15.2548846,17.1578077 15.3542308,16.9914231 C15.7815,16.2798462 16.2233077,15.5787692 16.6594615,14.8728462 C16.6901538,14.8235769 16.7135769,14.7702692 16.7523462,14.6951538 C16.5641538,14.6951538 16.4090769,14.6886923 16.2556154,14.6991923 C16.2031154,14.7032308 16.1336538,14.7411923 16.1061923,14.784 C15.6086538,15.5747308 15.1167692,16.3678846 14.5958077,17.2054615 Z M12.7138846,17.2054615 C12.8713846,17.2054615 12.9917308,17.1933462 13.1080385,17.2086923 C13.2800769,17.2313077 13.3681154,17.1521538 13.4537308,17.0108077 C13.8793846,16.3073077 14.3171538,15.6110769 14.7492692,14.9124231 C14.7864231,14.8510385 14.8155,14.7856154 14.8631538,14.6951538 C14.6765769,14.6951538 14.5287692,14.6846538 14.3833846,14.7 C14.3187692,14.7072692 14.2363846,14.7533077 14.2024615,14.8066154 C13.7097692,15.5916923 13.2243462,16.38 12.7138846,17.2054615 Z M11.7713077,17.2054615 C11.9312308,17.2054615 12.0443077,17.1965769 12.1557692,17.2078846 C12.3197308,17.2248462 12.4198846,17.1699231 12.5071154,17.0196923 C12.7655769,16.5762692 13.0434231,16.1449615 13.3131923,15.7088077 C13.5143077,15.3833077 13.7154231,15.0561923 13.9375385,14.6951538 C13.7905385,14.6951538 13.6847308,14.7064615 13.5829615,14.6927308 C13.3891154,14.6660769 13.2760385,14.7452308 13.1831538,14.9140385 C13.0345385,15.1846154 12.8608846,15.4414615 12.6985385,15.7047692 C12.3972692,16.1926154 12.0951923,16.6812692 11.7713077,17.2054615 Z M6.39692308,14.6951538 C6.25396154,14.6951538 6.14815385,14.7080769 6.048,14.6927308 C5.84203846,14.6612308 5.73461538,14.7557308 5.63203846,14.9261538 C5.2395,15.5844231 4.82919231,16.2321923 4.42696154,16.884 C4.36638462,16.9825385 4.30903846,17.0826923 4.23715385,17.2054615 C4.38657692,17.2054615 4.50046154,17.1925385 4.61030769,17.2086923 C4.79042308,17.2337308 4.88896154,17.1586154 4.97619231,17.0051538 C5.16357692,16.6756154 5.37196154,16.3573846 5.57065385,16.0343077 C5.83961538,15.5997692 6.10696154,15.1652308 6.39692308,14.6951538 Z M9.22384615,14.6951538 C9.0615,14.6951538 8.94842308,14.7056538 8.83776923,14.6927308 C8.66896154,14.6733462 8.57284615,14.7403846 8.48723077,14.8857692 C8.21665385,15.3461538 7.93153846,15.7968462 7.65046154,16.2515769 C7.45984615,16.5593077 7.26842308,16.8662308 7.05680769,17.2054615 C7.21107692,17.2054615 7.32415385,17.1917308 7.43157692,17.2086923 C7.623,17.2393846 7.71911538,17.1489231 7.81038462,16.9930385 C8.085,16.5278077 8.37576923,16.0722692 8.66007692,15.6126923 C8.83938462,15.3211154 9.01869231,15.0295385 9.22384615,14.6951538 Z M12.0523846,14.6951538 C11.9118462,14.6951538 11.8197692,14.7056538 11.7301154,14.6935385 C11.5152692,14.6628462 11.3908846,14.7468462 11.2818462,14.9398846 C11.0322692,15.3800769 10.7528077,15.8025 10.4854615,16.233 C10.2916154,16.5463846 10.0977692,16.8621923 9.88696154,17.2054615 C10.0493077,17.2054615 10.1753077,17.1949615 10.2988846,17.2078846 C10.4531538,17.2248462 10.5355385,17.1642692 10.6122692,17.0301923 C10.8077308,16.6885385 11.0258077,16.3606154 11.2325769,16.0254231 C11.4983077,15.5973462 11.7624231,15.1668462 12.0523846,14.6951538 Z M12.9973846,14.6951538 C12.8463462,14.6951538 12.7405385,14.7040385 12.6371538,14.6935385 C12.4570385,14.6741538 12.3455769,14.7282692 12.2510769,14.9003077 C12.0507692,15.2629615 11.8165385,15.6070385 11.5984615,15.9591923 C11.3480769,16.3638462 11.0993077,16.7685 10.8440769,17.1812308 C11.4078462,17.2668462 11.4167308,17.262 11.6848846,16.8145385 C11.7107308,16.7717308 11.7373846,16.7305385 11.7632308,16.6893462 C12.1662692,16.0391538 12.5685,15.3881538 12.9973846,14.6951538 Z M15.8235,14.6951538 C15.6756923,14.6951538 15.5715,14.7056538 15.4705385,14.6927308 C15.2791154,14.6685 15.1676538,14.7436154 15.0683077,14.9108077 C14.7177692,15.5028462 14.3486538,16.0835769 13.9876154,16.6691538 C13.8826154,16.8387692 13.7808462,17.01 13.6621154,17.2054615 C13.8220385,17.2054615 13.9423846,17.1933462 14.0595,17.2086923 C14.2242692,17.2305 14.3098846,17.1586154 14.3906538,17.0221154 C14.6410385,16.5988846 14.9059615,16.1845385 15.1644231,15.7661538 C15.3776538,15.4220769 15.5884615,15.0771923 15.8235,14.6951538 Z M15.5432308,17.2054615 C15.6958846,17.2054615 15.8033077,17.1933462 15.9066923,17.2078846 C16.1045769,17.2369615 16.2047308,17.1465 16.3016538,16.9825385 C16.6384615,16.4139231 16.9938462,15.8566154 17.3403462,15.2952692 C17.4566538,15.1070769 17.5705385,14.9172692 17.7054231,14.6951538 C17.5568077,14.6951538 17.451,14.7056538 17.3484231,14.6927308 C17.1658846,14.6701154 17.0560385,14.7363462 16.9615385,14.8995 C16.7079231,15.3372692 16.4325,15.7621154 16.1667692,16.1926154 C15.9648462,16.5197308 15.7645385,16.8468462 15.5432308,17.2054615 Z M18.6528462,14.6951538 C18.4945385,14.6951538 18.3879231,14.7064615 18.2853462,14.6927308 C18.0987692,14.6668846 17.9945769,14.7444231 17.9008846,14.9051538 C17.6424231,15.3485769 17.3645769,15.7798846 17.0956154,16.2160385 C16.8977308,16.5358846 16.7014615,16.8565385 16.4866154,17.2054615 C16.6497692,17.2054615 16.7765769,17.1941538 16.8993462,17.2086923 C17.0560385,17.2272692 17.1392308,17.1602308 17.2143462,17.0301923 C17.4049615,16.7014615 17.6109231,16.3824231 17.8104231,16.0593462 C18.0826154,15.6191538 18.3548077,15.1781538 18.6528462,14.6951538 Z M2.34311538,17.2054615 C2.49011538,17.2054615 2.59673077,17.1941538 2.70011538,17.2078846 C2.89234615,17.2337308 3.00138462,17.157 3.09911538,16.989 C3.36403846,16.5334615 3.65076923,16.0908462 3.92780769,15.6425769 C4.11519231,15.3405 4.30096154,15.0376154 4.49157692,14.7274615 C4.00130769,14.6256923 3.92053846,14.6571923 3.68307692,15.0376154 C3.63542308,15.1151538 3.58776923,15.1935 3.54011538,15.2710385 C3.14838462,15.9034615 2.75746154,16.5358846 2.34311538,17.2054615 Z M1.40296154,17.2054615 C1.55076923,17.2054615 1.66384615,17.1917308 1.77207692,17.2086923 C1.96188462,17.2369615 2.05961538,17.1513462 2.15411538,16.9946538 C2.56361538,16.3137692 2.98765385,15.6409615 3.40523077,14.9641154 C3.4545,14.8849615 3.49811538,14.8017692 3.55707692,14.6951538 C3.42380769,14.6951538 3.32446154,14.7056538 3.22834615,14.6927308 C3.02965385,14.6668846 2.91253846,14.7387692 2.80996154,14.9196923 C2.55957692,15.3598846 2.28011538,15.7831154 2.01357692,16.2136154 C1.81488462,16.5342692 1.61780769,16.8557308 1.40296154,17.2054615 Z M17.4283846,17.2054615 C17.5899231,17.2054615 17.7038077,17.1957692 17.8144615,17.2078846 C17.9808462,17.2264615 18.0785769,17.1666923 18.1658077,17.0180769 C18.4275,16.569 18.7101923,16.1304231 18.9831923,15.6878077 C19.1810769,15.3679615 19.3781538,15.0473077 19.5946154,14.6951538 C19.4411538,14.6951538 19.3280769,14.7056538 19.2182308,14.6927308 C19.0413462,14.6725385 18.942,14.7395769 18.8523462,14.8970769 C18.6447692,15.2645769 18.4097308,15.6159231 18.1876154,15.9737308 C17.9404615,16.3727308 17.6957308,16.7725385 17.4283846,17.2054615 Z M3.2865,17.2054615 C3.44723077,17.2054615 3.56757692,17.1949615 3.68469231,17.2078846 C3.84542308,17.2256538 3.93507692,17.1683077 4.01746154,17.0245385 C4.22584615,16.6586538 4.45926923,16.3065 4.68138462,15.9478846 C4.93176923,15.5440385 5.18053846,15.1385769 5.43415385,14.7266538 C4.94630769,14.6265 4.86230769,14.658 4.62726923,15.0368077 C4.18707692,15.7467692 3.7485,16.4583462 3.2865,17.2054615 Z M14.5788462,10.8949615 L14.5788462,10.8941538 C14.4237692,10.8941538 14.2695,10.8901154 14.1152308,10.8949615 C13.5886154,10.9135385 13.1435769,11.3545385 13.1112692,11.8843846 C13.0797692,12.4045385 13.4828077,12.9263077 14.0029615,12.9707308 C14.4415385,13.0086923 14.8881923,13.0103077 15.3259615,12.9739615 C15.8671154,12.9287308 16.2564231,12.4505769 16.2435,11.9150769 C16.2313846,11.3811923 15.8154231,10.9377692 15.2742692,10.8981923 C15.0440769,10.8812308 14.8106538,10.8949615 14.5788462,10.8949615 Z M9.61638462,10.8965769 C9.61638462,10.8917308 9.61638462,10.8868846 9.61638462,10.8820385 C9.22142308,10.8820385 8.82726923,10.878 8.43230769,10.8836538 C8.27884615,10.8860769 8.11973077,10.8901154 7.97192308,10.9280769 C7.46307692,11.0573077 7.13838462,11.5354615 7.18765385,12.0588462 C7.2345,12.5450769 7.65126923,12.9448846 8.16173077,12.9868846 C8.295,12.9973846 8.42907692,12.9941538 8.56315385,12.9949615 C9.345,12.9949615 10.1276538,12.9998077 10.9095,12.9925385 C11.5516154,12.9868846 12.0111923,12.5345769 12.0079615,11.9288077 C12.0047308,11.3965385 11.5887692,10.9288846 11.0532692,10.9014231 C10.5751154,10.8771923 10.0953462,10.8965769 9.61638462,10.8965769 Z M10.7253462,6.03588462 C10.5298846,6.17319231 10.3505769,6.29838462 10.1720769,6.42357692 C9.87484615,6.63196154 9.534,6.59319231 9.35065385,6.32988462 C9.16488462,6.06253846 9.24161538,5.73865385 9.54207692,5.52542308 C9.68261538,5.42526923 9.82396154,5.32511538 9.97015385,5.22173077 C9.89584615,5.11592308 9.83607692,5.03030769 9.77146154,4.93742308 C9.50007692,5.01819231 9.24,5.10219231 8.97669231,5.17246154 C8.67461538,5.25403846 8.39030769,5.103 8.29823077,4.82273077 C8.20211538,4.53276923 8.34992308,4.242 8.65523077,4.13296154 C8.84665385,4.06511538 9.0405,4.00776923 9.23273077,3.94557692 C9.16326923,3.58615385 9.16326923,3.58615385 8.82888462,3.58615385 C8.64553846,3.58615385 8.46219231,3.59019231 8.27965385,3.58534615 C7.94365385,3.57484615 7.70215385,3.34303846 7.70134615,3.03611538 C7.70134615,2.72838462 7.94365385,2.49496154 8.27884615,2.48769231 C8.46703846,2.48284615 8.65523077,2.48688462 8.8515,2.48688462 C8.82484615,2.21226923 8.79576923,1.96107692 8.778,1.70907692 C8.76992308,1.58873077 8.71096154,1.56046154 8.60192308,1.554 C8.37011538,1.54026923 8.13992308,1.49907692 7.90811538,1.49423077 C7.04307692,1.47969231 6.17803846,1.47646154 5.313,1.46596154 C5.17003846,1.46434615 5.124,1.51603846 5.12480769,1.66626923 C5.12884615,2.40611538 5.14015385,3.14596154 5.10703846,3.88419231 C5.07311538,4.64503846 4.95519231,5.39215385 4.69430769,6.11826923 C4.51015385,6.63276923 4.37123077,7.16584615 4.25088462,7.69973077 C4.06673077,8.51469231 4.40353846,9.20688462 5.16761538,9.53238462 C5.50280769,9.67534615 5.88565385,9.77307692 6.2475,9.77630769 C9.04534615,9.79811538 11.8423846,9.79165385 14.6402308,9.79407692 C14.7177692,9.79488462 14.7953077,9.79569231 14.8728462,9.79003846 C15.3138462,9.75934615 15.6433846,9.43707692 15.7023462,9.00011538 C15.7467692,8.67057692 15.6643846,8.39192308 15.3881538,8.20130769 C15.1991538,8.07046154 15.0004615,7.92184615 14.784,7.86853846 C13.8470769,7.63834615 12.9214615,7.38230769 12.054,6.93080769 C11.9134615,7.1085 11.7842308,7.27407692 11.6509615,7.43803846 C11.4353077,7.70296154 11.1154615,7.75465385 10.8675,7.56807692 C10.6098462,7.37503846 10.5743077,7.04469231 10.7835,6.76442308 C10.8876923,6.62630769 10.9959231,6.49142308 11.109,6.34603846 C10.9749231,6.237 10.8553846,6.14088462 10.7253462,6.03588462 Z M0,17.9776154 C0,16.6182692 0,15.2742692 0,13.9125 C1.134,13.9125 2.25830769,13.9125 3.40280769,13.9125 C3.37776923,13.8527308 3.36242308,13.8147692 3.34707692,13.7776154 C3.19119231,13.3858846 3.41734615,13.0183846 3.84138462,12.9998077 C4.19273077,12.9844615 4.54569231,13.0006154 4.89784615,12.9933462 C5.45353846,12.9812308 5.89776923,12.6492692 6.03830769,12.1517308 C6.20792308,11.5491923 5.86061538,10.9482692 5.24676923,10.7342308 C4.93661538,10.626 4.62,10.5080769 4.34296154,10.3360385 C3.34869231,9.71815385 2.90123077,8.57769231 3.19280769,7.39442308 C3.35192308,6.74826923 3.56111538,6.11342308 3.75415385,5.47615385 C3.95042308,4.82919231 4.01261538,4.16365385 4.02069231,3.49407692 C4.02957692,2.7195 4.01665385,1.94411538 4.01180769,1.16953846 C4.01019231,0.821423077 4.12246154,0.651807692 4.45523077,0.538730769 C5.05857692,0.333576923 5.68776923,0.297230769 6.31373077,0.329538462 C7.33303846,0.382038462 8.35073077,0.462807692 9.36761538,0.545192308 C9.67534615,0.570230769 9.84819231,0.800423077 9.84980769,1.13723077 C9.85223077,1.81003846 9.92734615,2.47315385 10.1187692,3.11930769 C10.5500769,4.57153846 11.5209231,5.54319231 12.8883462,6.11503846 C13.5336923,6.38480769 14.2194231,6.56330769 14.8954615,6.7515 C15.4043077,6.89203846 15.8477308,7.12626923 16.233,7.48246154 C16.9898077,8.18111538 16.9171154,9.29088462 16.5068077,9.94834615 C16.4696538,10.0073077 16.4300769,10.0654615 16.38,10.1421923 C17.0205,10.6251923 17.3888077,11.2551923 17.3346923,12.0741923 C17.2805769,12.8899615 16.8516923,13.4755385 16.0965,13.8979615 C17.7651923,13.8979615 19.3741154,13.8979615 21,13.8979615 C21,15.2629615 21,16.6126154 21,17.9776154 C14.0102308,17.9776154 7.01642308,17.9776154 0,17.9776154 Z" id="Fill-25"></path>
                </g>
            </g>
        </g>
    </g>
</svg>